<svg width="454" height="406" viewBox="0 0 454 406" fill="none" xmlns="http://www.w3.org/2000/svg">
<g filter="url(#filter0_d)">
<path d="M207.789 149C207.789 198.757 115.224 171.523 53.8037 171.523C-7.61681 171.523 0.336544 141.583 0.336544 91.8256C0.336544 42.0686 128.658 39.8488 154.322 0C215.742 0 207.789 99.243 207.789 149Z" transform="translate(104.665 142.512) rotate(-26.7)" fill="#F74A6E"/>
<path d="M207.789 149C207.789 198.757 115.224 171.523 53.8037 171.523C-7.61681 171.523 0.336544 141.583 0.336544 91.8256C0.336544 42.0686 128.658 39.8488 154.322 0C215.742 0 207.789 99.243 207.789 149Z" transform="translate(104.665 142.512) rotate(-26.7)" fill="#F74A6E"/>
<path d="M224.093 121.69C138.704 100.845 180.542 233.895 126.819 233.895C73.0965 233.895 -58.485 147.555 29.5456 121.69C117.576 95.8239 -5.64247 62.2866 126.819 9.48391C259.281 -43.3188 309.483 142.534 224.093 121.69Z" transform="translate(4.67245 131.713) rotate(-26.7)" fill="#465FE8"/>
<path d="M222.186 121.744C137.523 100.89 179.005 234 125.74 234C72.4744 234 -57.9872 147.621 29.2941 121.744C116.575 95.8668 -5.59444 62.3145 125.74 9.48815C257.074 -43.3382 306.849 142.598 222.186 121.744Z" transform="translate(4.67245 131.713) rotate(-26.7)" fill="#465FE8"/>
<path d="M224.093 121.69C138.704 100.845 180.542 233.895 126.819 233.895C73.0965 233.895 -58.485 147.555 29.5456 121.69C117.576 95.8239 -5.64246 62.2866 126.819 9.48391C259.281 -43.3188 309.483 142.534 224.093 121.69Z" transform="translate(4.67245 131.713) rotate(-26.7)" fill="#465FE8"/>
<path fill-rule="evenodd" clip-rule="evenodd" d="M77.5199 125.975C84.7925 91.646 92.59 54.8394 141.314 66.4791C182.255 76.2598 192.401 40.0971 177.487 4.88327C171.514 1.74377 164.479 -5.35829e-07 156.199 0C144.69 17.4883 112.785 27.6599 80.8154 37.8517C40.6283 50.6634 0.340634 63.5072 0.340638 90.9569C0.340637 96.2659 0.247235 101.347 0.158244 106.188C-0.578882 146.288 -1.01294 169.901 54.4583 169.901C56.6888 169.901 58.96 169.935 61.2659 170C70.1906 160.572 73.7861 143.6 77.5199 125.975Z" transform="translate(105.327 144.892) rotate(-26.7)" fill="#FA8FFB"/>
<path d="M293 75.6119C293 125.85 203.616 171.523 146.064 171.523C88.5121 171.523 0 72.5657 0 22.3279C0 -27.9099 88.5121 22.3279 146.064 22.3279C203.616 22.3279 293 25.3742 293 75.6119Z" transform="translate(61.5009 244.704) rotate(-26.7)" fill="#51F797"/>
<path fill-rule="evenodd" clip-rule="evenodd" d="M106.399 91.3424C157.46 96.5896 207.789 101.762 207.789 65.072C207.789 62.2967 207.814 59.3674 207.85 56.31C199.55 13.0466 116.223 10.301 61.5859 10.301C43.3914 10.301 22.1025 5.28 1.49429 0C0.735825 2.49446 0.33654 5.12206 0.336545 7.89757C0.336548 13.2572 0.244263 18.387 0.156347 23.2742C-0.571937 63.7574 -1.00077 87.5952 53.8037 87.5952C69.9342 87.5952 88.2129 89.4736 106.399 91.3424Z" transform="translate(142.375 217.491) rotate(-26.7)" fill="#FAF9C3"/>
<path fill-rule="evenodd" clip-rule="evenodd" d="M0.00513697 21.662C0.178902 13.8249 4.65113 6.73142 14.8722 1.09761C29.5095 -2.57054 53.33 3.59024 78.9011 10.2038C101.647 16.0867 125.779 22.3279 146.064 22.3279C153.457 22.3279 161.376 22.3782 169.563 22.5723C165.773 32.5729 163.392 44.0562 161.066 55.2774C155.506 82.0968 150.256 107.419 126.819 107.419C85.9759 107.419 0.130583 57.5145 0 22.2204C0.000482635 22.0329 0.00219068 21.8467 0.00513697 21.662Z" transform="translate(61.5011 244.704) rotate(-26.7)" fill="#77E6EB"/>
<path fill-rule="evenodd" clip-rule="evenodd" d="M292.328 194.814C292.771 197.121 293 199.545 293 202.089C293 252.326 203.616 298 146.064 298C88.5121 298 -2.83511e-06 199.042 7.91505e-06 148.805L6.41414e-05 148.734L0.000138375 148.697L2.91142e-05 148.651C-0.000251733 148.48 0.00150024 148.31 0.0052439 148.141C0.00525898 148.14 0.00526026 148.139 0.00527534 148.139C0.00527582 148.139 0.0052897 148.138 0.00529018 148.138C0.199313 135.978 5.73653 129.879 14.8288 127.585C18.7667 125.405 23.5606 123.444 29.2941 121.744C68.266 110.19 65.4795 97.105 62.1473 81.4577C58.0167 62.0613 53.0475 38.7271 125.74 9.48815C142.483 2.75362 157.901 -0.100481 171.883 0.00269491C216.808 -0.324506 247.29 29.2434 259.832 59.5055C293.969 77.8379 293.048 143.31 292.42 187.929L292.42 187.931L292.42 187.947L292.419 187.959C292.386 190.305 292.354 192.593 292.328 194.814Z" transform="translate(4.67245 131.713) rotate(-26.7)" fill="white" fill-opacity="0.3"/>
<g filter="url(#filter1_d)">
<path d="M22.9492 54.7891C21.875 54.7891 20.8984 54.6263 20.0195 54.3008C19.1406 53.9753 18.3512 53.5358 17.6514 52.9824C16.9678 52.429 16.3737 51.778 15.8691 51.0293C15.3809 50.2806 14.9658 49.4831 14.624 48.6367C14.2985 47.7904 14.0544 46.9196 13.8916 46.0244C13.7451 45.1455 13.6719 44.2747 13.6719 43.4121V39.4326C13.6719 37.2679 13.1673 35.7135 12.1582 34.7695C11.1491 33.8255 9.611 33.3535 7.54395 33.3535V28.4707C9.611 28.4707 11.1491 27.9987 12.1582 27.0547C13.1673 26.1107 13.6719 24.54 13.6719 22.3428V18.3633C13.6719 17.5169 13.737 16.6462 13.8672 15.751C14.0137 14.8558 14.2415 13.985 14.5508 13.1387C14.86 12.2923 15.2507 11.5029 15.7227 10.7705C16.2109 10.0218 16.7969 9.37077 17.4805 8.81738C18.1803 8.264 18.9779 7.82454 19.873 7.49902C20.7845 7.1735 21.8099 7.01074 22.9492 7.01074L23.7793 10.8438C22.7865 10.8112 22.0215 11.0228 21.4844 11.4785C20.9473 11.918 20.5566 12.5039 20.3125 13.2363C20.0684 13.9688 19.9219 14.7907 19.873 15.7021C19.8405 16.5973 19.8242 17.4844 19.8242 18.3633V22.3428C19.8242 24.2796 19.3441 25.9967 18.3838 27.4941C17.4398 28.9915 15.9668 30.1309 13.9648 30.9121C15.9831 31.6934 17.4642 32.8245 18.4082 34.3057C19.3522 35.7868 19.8242 37.4958 19.8242 39.4326V43.4121C19.8242 44.291 19.873 45.1781 19.9707 46.0732C20.0846 46.9847 20.2881 47.8066 20.5811 48.5391C20.874 49.2715 21.2728 49.8574 21.7773 50.2969C22.2982 50.7526 22.9655 50.9642 23.7793 50.9316L22.9492 54.7891ZM33.1787 46V10.4531H45.1172C47.054 10.4531 48.8118 10.6484 50.3906 11.0391C51.9857 11.4297 53.3447 12.0238 54.4678 12.8213C55.5908 13.6188 56.4535 14.6279 57.0557 15.8486C57.6742 17.0693 57.9834 18.5098 57.9834 20.1699C57.9671 21.8301 57.5195 23.3193 56.6406 24.6377C55.778 25.9561 54.5003 26.957 52.8076 27.6406C53.833 27.901 54.7201 28.2917 55.4688 28.8125C56.2174 29.3333 56.8359 29.9518 57.3242 30.668C57.8288 31.3678 58.195 32.141 58.4229 32.9873C58.667 33.8174 58.7891 34.68 58.7891 35.5752C58.7891 37.2842 58.4961 38.7897 57.9102 40.0918C57.3242 41.3939 56.486 42.4844 55.3955 43.3633C54.305 44.2422 52.9785 44.9014 51.416 45.3408C49.8535 45.7803 48.0957 46 46.1426 46H33.1787ZM40.0635 30.3262V40.458H46.167C48.0387 40.4417 49.4629 39.986 50.4395 39.0908C51.4323 38.1794 51.9287 36.9912 51.9287 35.5264C51.945 33.8988 51.5055 32.6292 50.6104 31.7178C49.7152 30.8063 48.3317 30.3424 46.46 30.3262H40.0635ZM40.0635 25.3701H45.166C47.0703 25.3538 48.5352 24.9551 49.5605 24.1738C50.5859 23.3926 51.1068 22.2451 51.123 20.7314C51.123 19.0713 50.6104 17.8831 49.585 17.167C48.5596 16.4346 47.0785 16.0602 45.1416 16.0439H40.0635V25.3701ZM64.917 8.5H79.6875V40.4824H87.2559V46H64.917V40.4824H72.8271V14.042H64.917V8.5ZM105.225 41.0684C105.892 41.0684 106.527 40.9707 107.129 40.7754C107.731 40.5801 108.26 40.3034 108.716 39.9453C109.172 39.5872 109.521 39.1559 109.766 38.6514C110.026 38.1468 110.14 37.5853 110.107 36.9668H116.504C116.536 38.334 116.252 39.6035 115.649 40.7754C115.063 41.9473 114.258 42.9564 113.232 43.8027C112.207 44.6491 111.011 45.3164 109.644 45.8047C108.293 46.2767 106.86 46.5127 105.347 46.5127C103.296 46.5127 101.497 46.1709 99.9512 45.4873C98.4049 44.7874 97.111 43.8353 96.0693 42.6309C95.0439 41.4264 94.2627 40.0186 93.7256 38.4072C93.2048 36.7796 92.9443 35.0381 92.9443 33.1826V32.4502C92.9443 30.5947 93.2048 28.8613 93.7256 27.25C94.2464 25.6224 95.0277 24.2064 96.0693 23.002C97.111 21.7975 98.3968 20.8454 99.9268 20.1455C101.473 19.4456 103.263 19.0957 105.298 19.0957C106.925 19.0957 108.431 19.3398 109.814 19.8281C111.198 20.3164 112.386 21.0081 113.379 21.9033C114.388 22.7822 115.169 23.8564 115.723 25.126C116.276 26.3792 116.536 27.7871 116.504 29.3496H110.107C110.14 28.6986 110.042 28.0801 109.814 27.4941C109.587 26.9082 109.253 26.4036 108.813 25.9805C108.374 25.5573 107.845 25.2236 107.227 24.9795C106.608 24.7191 105.933 24.5889 105.2 24.5889C104.126 24.5889 103.239 24.8086 102.539 25.248C101.839 25.6875 101.278 26.2734 100.854 27.0059C100.448 27.7383 100.155 28.5765 99.9756 29.5205C99.8128 30.4645 99.7314 31.4411 99.7314 32.4502V33.1826C99.7314 34.208 99.8128 35.2008 99.9756 36.1611C100.138 37.1051 100.423 37.9434 100.83 38.6758C101.253 39.3919 101.815 39.9697 102.515 40.4092C103.231 40.8486 104.134 41.0684 105.225 41.0684ZM133.496 35.0869L130.42 37.9434V46H123.633V8.5H130.42V29.9355L132.471 27.5918L139.771 19.584H147.925L137.964 30.5947L149.316 46H140.991L133.496 35.0869ZM183.228 46V10.4531H192.432C194.792 10.4531 196.924 10.86 198.828 11.6738C200.749 12.4714 202.384 13.5944 203.735 15.043C205.103 16.4753 206.152 18.1924 206.885 20.1943C207.633 22.1963 208.008 24.3936 208.008 26.7861V29.7158C208.008 32.1084 207.633 34.3057 206.885 36.3076C206.152 38.2933 205.119 40.0104 203.784 41.459C202.45 42.8913 200.846 44.0062 198.975 44.8037C197.103 45.6012 195.036 46 192.773 46H183.228ZM190.137 16.0195V40.4824H192.773C194.059 40.4824 195.207 40.2383 196.216 39.75C197.241 39.2617 198.104 38.5537 198.804 37.626C199.52 36.6982 200.065 35.5752 200.439 34.2568C200.814 32.9222 201.001 31.4085 201.001 29.7158V26.7373C201.001 25.1423 200.814 23.6937 200.439 22.3916C200.081 21.0732 199.536 19.9421 198.804 18.998C198.088 18.054 197.192 17.3216 196.118 16.8008C195.06 16.2799 193.831 16.0195 192.432 16.0195H190.137ZM212.72 32.5479C212.72 30.6273 212.996 28.8532 213.55 27.2256C214.103 25.5817 214.909 24.1576 215.967 22.9531C217.041 21.7487 218.343 20.8047 219.873 20.1211C221.419 19.4375 223.185 19.0957 225.171 19.0957C227.157 19.0957 228.923 19.4375 230.469 20.1211C232.015 20.8047 233.317 21.7487 234.375 22.9531C235.449 24.1576 236.263 25.5817 236.816 27.2256C237.37 28.8532 237.646 30.6273 237.646 32.5479V33.0605C237.646 34.9974 237.37 36.7878 236.816 38.4316C236.263 40.0592 235.457 41.4753 234.399 42.6797C233.341 43.8841 232.039 44.8281 230.493 45.5117C228.947 46.179 227.189 46.5127 225.22 46.5127C223.234 46.5127 221.46 46.179 219.897 45.5117C218.351 44.8281 217.041 43.8841 215.967 42.6797C214.909 41.4753 214.103 40.0592 213.55 38.4316C212.996 36.7878 212.72 34.9974 212.72 33.0605V32.5479ZM219.507 33.0605C219.507 34.1673 219.613 35.209 219.824 36.1855C220.036 37.1458 220.369 37.9922 220.825 38.7246C221.281 39.4408 221.867 40.0104 222.583 40.4336C223.315 40.8568 224.194 41.0684 225.22 41.0684C226.213 41.0684 227.067 40.8568 227.783 40.4336C228.499 40.0104 229.077 39.4408 229.517 38.7246C229.972 37.9922 230.306 37.1458 230.518 36.1855C230.729 35.209 230.835 34.1673 230.835 33.0605V32.5479C230.835 31.4736 230.729 30.4564 230.518 29.4961C230.306 28.5358 229.972 27.6895 229.517 26.957C229.077 26.2246 228.499 25.6468 227.783 25.2236C227.067 24.8005 226.196 24.5889 225.171 24.5889C224.162 24.5889 223.299 24.8005 222.583 25.2236C221.867 25.6468 221.281 26.2246 220.825 26.957C220.369 27.6895 220.036 28.5358 219.824 29.4961C219.613 30.4564 219.507 31.4736 219.507 32.5479V33.0605ZM242.993 32.5967C242.993 30.5947 243.237 28.7637 243.726 27.1035C244.23 25.4434 244.946 24.0192 245.874 22.8311C246.802 21.6429 247.925 20.7233 249.243 20.0723C250.562 19.4212 252.051 19.0957 253.711 19.0957C255.257 19.0957 256.584 19.3561 257.69 19.877C258.797 20.3978 259.741 21.1383 260.522 22.0986L260.791 19.584H266.968V45.1455C266.968 46.9359 266.659 48.5309 266.04 49.9307C265.438 51.3304 264.583 52.5104 263.477 53.4707C262.386 54.431 261.068 55.1553 259.521 55.6436C257.992 56.1481 256.299 56.4004 254.443 56.4004C253.646 56.4004 252.791 56.319 251.88 56.1562C250.968 55.9935 250.065 55.7412 249.17 55.3994C248.275 55.0576 247.428 54.6182 246.631 54.0811C245.833 53.5602 245.15 52.9336 244.58 52.2012L247.632 48.0752C248.494 49.0518 249.471 49.7923 250.562 50.2969C251.652 50.8177 252.832 51.0781 254.102 51.0781C256.006 51.0781 257.487 50.5654 258.545 49.54C259.619 48.5309 260.156 47.0905 260.156 45.2188V43.7051C259.359 44.584 258.423 45.2676 257.349 45.7559C256.291 46.2441 255.062 46.4883 253.662 46.4883C252.018 46.4883 250.537 46.1546 249.219 45.4873C247.917 44.8037 246.802 43.8678 245.874 42.6797C244.946 41.4915 244.23 40.0837 243.726 38.4561C243.237 36.8122 242.993 35.0299 242.993 33.1094V32.5967ZM249.805 33.1094C249.805 34.2161 249.91 35.2497 250.122 36.21C250.35 37.154 250.692 37.984 251.147 38.7002C251.603 39.4001 252.181 39.9535 252.881 40.3604C253.581 40.7673 254.411 40.9707 255.371 40.9707C256.559 40.9707 257.536 40.7428 258.301 40.2871C259.082 39.8314 259.701 39.1966 260.156 38.3828V27.2012C259.701 26.3711 259.082 25.7363 258.301 25.2969C257.536 24.8411 256.576 24.6133 255.42 24.6133C254.46 24.6133 253.63 24.8249 252.93 25.248C252.23 25.6549 251.644 26.2246 251.172 26.957C250.716 27.6732 250.374 28.5195 250.146 29.4961C249.919 30.4564 249.805 31.4899 249.805 32.5967V33.1094ZM278.369 50.9316C279.167 50.9642 279.818 50.7526 280.322 50.2969C280.843 49.8574 281.25 49.2715 281.543 48.5391C281.836 47.8066 282.039 46.9847 282.153 46.0732C282.267 45.1781 282.324 44.291 282.324 43.4121V39.4326C282.324 38.4886 282.43 37.5934 282.642 36.7471C282.869 35.9007 283.211 35.1113 283.667 34.3789C284.123 33.6465 284.692 32.9954 285.376 32.4258C286.076 31.8398 286.906 31.3434 287.866 30.9365C285.962 30.1227 284.562 28.959 283.667 27.4453C282.772 25.9316 282.324 24.2308 282.324 22.3428V18.3633C282.324 17.4844 282.3 16.5973 282.251 15.7021C282.218 14.7907 282.08 13.9688 281.836 13.2363C281.592 12.5039 281.201 11.918 280.664 11.4785C280.127 11.0228 279.362 10.8112 278.369 10.8438L279.199 7.01074C280.339 7.01074 281.356 7.1735 282.251 7.49902C283.162 7.82454 283.96 8.264 284.644 8.81738C285.327 9.37077 285.913 10.0218 286.401 10.7705C286.89 11.5029 287.288 12.2923 287.598 13.1387C287.907 13.985 288.127 14.8558 288.257 15.751C288.403 16.6462 288.477 17.5169 288.477 18.3633V22.3428C288.477 24.54 288.973 26.1107 289.966 27.0547C290.975 27.9987 292.521 28.4707 294.604 28.4707V33.3535C292.521 33.3535 290.975 33.8255 289.966 34.7695C288.973 35.7135 288.477 37.2679 288.477 39.4326V43.4121C288.477 44.2585 288.395 45.1292 288.232 46.0244C288.07 46.9196 287.826 47.7904 287.5 48.6367C287.174 49.4831 286.759 50.2806 286.255 51.0293C285.75 51.778 285.156 52.429 284.473 52.9824C283.789 53.5358 283.008 53.9753 282.129 54.3008C281.25 54.6263 280.273 54.7891 279.199 54.7891L278.369 50.9316Z" transform="translate(70.9999 138)" fill="#181819"/>
</g>
<g filter="url(#filter2_d)">
<path d="M4.32129 46V10.4531H12.915C15.1937 10.4857 17.2282 10.9333 19.0186 11.7959C20.8089 12.6585 22.3226 13.8141 23.5596 15.2627C24.7965 16.7113 25.7406 18.404 26.3916 20.3408C27.0426 22.2614 27.3844 24.3122 27.417 26.4932V29.9844C27.3844 32.1654 27.0426 34.2243 26.3916 36.1611C25.7406 38.0817 24.7965 39.7663 23.5596 41.2148C22.3226 42.6634 20.8089 43.819 19.0186 44.6816C17.2282 45.528 15.1937 45.9674 12.915 46H4.32129ZM7.25098 12.9434V43.5342H12.915C14.8193 43.5016 16.4876 43.111 17.9199 42.3623C19.3685 41.6136 20.5729 40.6208 21.5332 39.3838C22.4935 38.1305 23.2178 36.6982 23.7061 35.0869C24.2106 33.4593 24.471 31.7585 24.4873 29.9844V26.4199C24.471 24.6621 24.2106 22.9775 23.7061 21.3662C23.2178 19.7549 22.4935 18.3307 21.5332 17.0938C20.5729 15.8568 19.3685 14.8639 17.9199 14.1152C16.4876 13.3665 14.8193 12.9759 12.915 12.9434H7.25098ZM35.4248 19.584H47.6807V43.4121H56.665V46H35.4248V43.4121H44.751V22.1963H35.4248V19.584ZM43.8965 12.3574C43.8965 11.7552 44.0674 11.2344 44.4092 10.7949C44.751 10.3555 45.3206 10.1357 46.1182 10.1357C46.8994 10.1357 47.4609 10.3555 47.8027 10.7949C48.1608 11.2344 48.3398 11.7552 48.3398 12.3574C48.3398 12.9271 48.1608 13.4316 47.8027 13.8711C47.4609 14.2943 46.8994 14.5059 46.1182 14.5059C45.3206 14.5059 44.751 14.2943 44.4092 13.8711C44.0674 13.4316 43.8965 12.9271 43.8965 12.3574ZM63.9404 32.5479C63.9404 30.79 64.152 29.1055 64.5752 27.4941C64.9984 25.8665 65.6413 24.4342 66.5039 23.1973C67.3828 21.944 68.4733 20.9512 69.7754 20.2188C71.0938 19.4701 72.6481 19.0957 74.4385 19.0957C76.1312 19.0957 77.6449 19.4619 78.9795 20.1943C80.3304 20.9105 81.4535 21.9277 82.3486 23.2461L82.4707 19.584H85.2051V45.5361C85.1888 47.1475 84.9365 48.6286 84.4482 49.9795C83.96 51.3304 83.252 52.486 82.3242 53.4463C81.4128 54.4229 80.306 55.1797 79.0039 55.7168C77.7018 56.2539 76.237 56.5225 74.6094 56.5225C73.8281 56.5225 73.0143 56.4329 72.168 56.2539C71.3216 56.0749 70.4915 55.7982 69.6777 55.4238C68.8639 55.0495 68.0827 54.5775 67.334 54.0078C66.6016 53.4544 65.9587 52.7871 65.4053 52.0059L67.041 50.248C69.1406 52.7871 71.5983 54.0566 74.4141 54.0566C75.6673 54.0566 76.7822 53.8532 77.7588 53.4463C78.7354 53.0394 79.5492 52.4616 80.2002 51.7129C80.8675 50.9805 81.3721 50.0934 81.7139 49.0518C82.0719 48.0264 82.2591 46.8952 82.2754 45.6582V42.6553C81.3477 43.8923 80.2083 44.8444 78.8574 45.5117C77.5228 46.1628 76.0335 46.4883 74.3896 46.4883C72.6318 46.4883 71.0938 46.1139 69.7754 45.3652C68.4733 44.6003 67.391 43.5993 66.5283 42.3623C65.6657 41.109 65.0146 39.6768 64.5752 38.0654C64.152 36.4378 63.9404 34.7695 63.9404 33.0605V32.5479ZM66.8701 33.0605C66.8701 34.3789 67.0085 35.6891 67.2852 36.9912C67.5781 38.2933 68.042 39.4652 68.6768 40.5068C69.3115 41.5322 70.1416 42.3623 71.167 42.9971C72.1924 43.6318 73.4456 43.9492 74.9268 43.9492C75.7568 43.9492 76.5462 43.8434 77.2949 43.6318C78.0436 43.404 78.7272 43.0866 79.3457 42.6797C79.9805 42.2728 80.542 41.7845 81.0303 41.2148C81.5348 40.6289 81.9499 39.9779 82.2754 39.2617V26.6885C81.9499 25.9561 81.5511 25.2806 81.0791 24.6621C80.6071 24.0436 80.0618 23.5146 79.4434 23.0752C78.8249 22.6195 78.1413 22.2695 77.3926 22.0254C76.6439 21.765 75.8382 21.6348 74.9756 21.6348C73.4782 21.6348 72.2168 21.9603 71.1914 22.6113C70.166 23.2461 69.3278 24.0843 68.6768 25.126C68.042 26.1514 67.5781 27.3151 67.2852 28.6172C67.0085 29.9193 66.8701 31.2295 66.8701 32.5479V33.0605ZM95.4834 19.584H107.739V43.4121H116.724V46H95.4834V43.4121H104.81V22.1963H95.4834V19.584ZM103.955 12.3574C103.955 11.7552 104.126 11.2344 104.468 10.7949C104.81 10.3555 105.379 10.1357 106.177 10.1357C106.958 10.1357 107.52 10.3555 107.861 10.7949C108.219 11.2344 108.398 11.7552 108.398 12.3574C108.398 12.9271 108.219 13.4316 107.861 13.8711C107.52 14.2943 106.958 14.5059 106.177 14.5059C105.379 14.5059 104.81 14.2943 104.468 13.8711C104.126 13.4316 103.955 12.9271 103.955 12.3574ZM134.57 12.8213V19.584H144.36V21.9766H134.57V38.6025C134.587 39.6279 134.741 40.4824 135.034 41.166C135.343 41.8333 135.75 42.3786 136.255 42.8018C136.776 43.2087 137.378 43.5016 138.062 43.6807C138.761 43.8597 139.518 43.9492 140.332 43.9492C141.146 43.9492 141.976 43.8923 142.822 43.7783C143.685 43.6644 144.417 43.5505 145.02 43.4365L145.459 45.6582C144.759 45.9349 143.905 46.1383 142.896 46.2686C141.886 46.415 140.861 46.4883 139.819 46.4883C138.647 46.4883 137.565 46.3418 136.572 46.0488C135.579 45.7721 134.717 45.3245 133.984 44.7061C133.252 44.0713 132.674 43.2575 132.251 42.2646C131.828 41.2555 131.608 40.0267 131.592 38.5781V21.9766H124.243V19.584H131.592V12.8213H134.57ZM173.022 46C172.843 45.4629 172.705 44.8688 172.607 44.2178C172.51 43.5505 172.445 42.875 172.412 42.1914C171.908 42.8099 171.322 43.3796 170.654 43.9004C169.987 44.4212 169.255 44.877 168.457 45.2676C167.676 45.6419 166.829 45.9349 165.918 46.1465C165.007 46.3743 164.054 46.4883 163.062 46.4883C161.825 46.4883 160.669 46.3092 159.595 45.9512C158.537 45.5931 157.609 45.0885 156.812 44.4375C156.03 43.7865 155.412 43.0052 154.956 42.0938C154.517 41.166 154.297 40.1325 154.297 38.9932C154.297 37.4795 154.631 36.1937 155.298 35.1357C155.965 34.0778 156.868 33.2233 158.008 32.5723C159.147 31.9049 160.465 31.4167 161.963 31.1074C163.46 30.7982 165.031 30.6436 166.675 30.6436H172.388V27.6406C172.371 26.6478 172.176 25.777 171.802 25.0283C171.427 24.2633 170.915 23.6286 170.264 23.124C169.629 22.6032 168.864 22.2126 167.969 21.9521C167.09 21.6917 166.13 21.5615 165.088 21.5615C164.144 21.5615 163.241 21.6836 162.378 21.9277C161.532 22.1719 160.775 22.5218 160.107 22.9775C159.456 23.4333 158.927 23.9948 158.521 24.6621C158.114 25.3132 157.894 26.0537 157.861 26.8838L154.932 26.8594C154.98 25.7363 155.273 24.7028 155.811 23.7588C156.364 22.8148 157.104 22.001 158.032 21.3174C158.96 20.6175 160.034 20.0723 161.255 19.6816C162.492 19.291 163.81 19.0957 165.21 19.0957C166.61 19.0957 167.92 19.2747 169.141 19.6328C170.378 19.9909 171.444 20.528 172.339 21.2441C173.25 21.9603 173.966 22.8555 174.487 23.9297C175.024 25.0039 175.301 26.2572 175.317 27.6895V40.4824C175.317 41.3613 175.391 42.2484 175.537 43.1436C175.7 44.0387 175.895 44.8932 176.123 45.707L176.147 46H173.022ZM163.379 43.9004C164.404 43.9167 165.381 43.7946 166.309 43.5342C167.253 43.2738 168.115 42.9157 168.896 42.46C169.678 41.988 170.369 41.4346 170.972 40.7998C171.574 40.1488 172.046 39.4408 172.388 38.6758V32.8896H167.065C165.78 32.8896 164.543 32.9873 163.354 33.1826C162.166 33.3779 161.117 33.7035 160.205 34.1592C159.294 34.5986 158.561 35.1927 158.008 35.9414C157.471 36.6901 157.202 37.626 157.202 38.749C157.202 39.5465 157.365 40.2627 157.69 40.8975C158.016 41.5322 158.455 42.0775 159.009 42.5332C159.562 42.9727 160.213 43.3145 160.962 43.5586C161.711 43.7865 162.516 43.9004 163.379 43.9004ZM185.571 8.5H197.876V43.4121H206.812V46H185.571V43.4121H194.946V11.1123H185.571V8.5Z" transform="translate(142 193)" fill="#181819"/>
</g>
</g>
<defs>
<filter id="filter0_d" x="0.672455" y="0.062439" width="453.327" height="405.875" filterUnits="userSpaceOnUse" color-interpolation-filters="sRGB">
<feFlood flood-opacity="0" result="BackgroundImageFix"/>
<feColorMatrix in="SourceAlpha" type="matrix" values="0 0 0 0 0 0 0 0 0 0 0 0 0 0 0 0 0 0 255 0"/>
<feOffset dy="4"/>
<feGaussianBlur stdDeviation="2"/>
<feColorMatrix type="matrix" values="0 0 0 0 0 0 0 0 0 0 0 0 0 0 0 0 0 0 0.25 0"/>
<feBlend mode="normal" in2="BackgroundImageFix" result="effect1_dropShadow"/>
<feBlend mode="normal" in="SourceGraphic" in2="effect1_dropShadow" result="shape"/>
</filter>
<filter id="filter1_d" x="74.5439" y="145.011" width="295.061" height="57.3896" filterUnits="userSpaceOnUse" color-interpolation-filters="sRGB">
<feFlood flood-opacity="0" result="BackgroundImageFix"/>
<feColorMatrix in="SourceAlpha" type="matrix" values="0 0 0 0 0 0 0 0 0 0 0 0 0 0 0 0 0 0 255 0"/>
<feOffset dy="4"/>
<feGaussianBlur stdDeviation="2"/>
<feColorMatrix type="matrix" values="0 0 0 0 0 0 0 0 0 0 0 0 0 0 0 0 0 0 0.25 0"/>
<feBlend mode="normal" in2="BackgroundImageFix" result="effect1_dropShadow"/>
<feBlend mode="normal" in="SourceGraphic" in2="effect1_dropShadow" result="shape"/>
</filter>
<filter id="filter2_d" x="142.321" y="201.5" width="210.49" height="56.0225" filterUnits="userSpaceOnUse" color-interpolation-filters="sRGB">
<feFlood flood-opacity="0" result="BackgroundImageFix"/>
<feColorMatrix in="SourceAlpha" type="matrix" values="0 0 0 0 0 0 0 0 0 0 0 0 0 0 0 0 0 0 255 0"/>
<feOffset dy="4"/>
<feGaussianBlur stdDeviation="2"/>
<feColorMatrix type="matrix" values="0 0 0 0 0 0 0 0 0 0 0 0 0 0 0 0 0 0 0.25 0"/>
<feBlend mode="normal" in2="BackgroundImageFix" result="effect1_dropShadow"/>
<feBlend mode="normal" in="SourceGraphic" in2="effect1_dropShadow" result="shape"/>
</filter>
</defs>
</svg>
